<svg id="Group_801" data-name="Group 801" xmlns="http://www.w3.org/2000/svg" width="104.275" height="33.267" viewBox="0 0 104.275 33.267">
  <path id="Path_324" data-name="Path 324" d="M1327.5,488.415V462.123a4.3,4.3,0,0,1,3.049-3.5h98.179c1.841.644,3.039,1.8,3.041,3.87q.011,12.763,0,25.527a3.729,3.729,0,0,1-3.914,3.854q-33,0-66,0h-.887V490.8q0-6.8,0-13.6c0-1.086-.245-1.326-1.348-1.326q-9.107,0-18.215,0c-1.155,0-1.339.181-1.339,1.3,0,4.634-.011,9.269.011,13.9,0,.628-.186.822-.823.813-2.616-.033-5.234.021-7.849-.038a4.954,4.954,0,0,1-1.949-.522A3.933,3.933,0,0,1,1327.5,488.415Zm29.625-25.069-.228-.1a4.371,4.371,0,0,0-.431.535c-.393.679-.786,1.36-1.14,2.06a.648.648,0,0,1-.966.372,10.253,10.253,0,0,0-7.774-.007.653.653,0,0,1-.968-.37c-.385-.741-.8-1.469-1.234-2.181-.093-.152-.328-.218-.5-.324a1.512,1.512,0,0,0,.024.6,23.008,23.008,0,0,0,1.145,2.057c.364.564.216.852-.323,1.2a10.054,10.054,0,0,0-4.377,6.079c-.257.974-.042,1.25.974,1.25q9.143,0,18.286,0c1,0,1.217-.292.961-1.267a10.121,10.121,0,0,0-4.45-6.118c-.5-.323-.585-.592-.266-1.093.407-.64.757-1.317,1.1-1.994A2.937,2.937,0,0,0,1357.125,463.346Zm-22.7,19.445c0,1.57-.017,3.14.006,4.709a2.213,2.213,0,0,0,1.723,2.148,2.124,2.124,0,0,0,2.326-1.045,3.763,3.763,0,0,0,.363-1.6c.035-2.81.018-5.62.012-8.43a3.8,3.8,0,0,0-.081-.75,2.215,2.215,0,0,0-2.325-1.947,2.264,2.264,0,0,0-2.023,2.358C1334.419,479.753,1334.427,481.272,1334.429,482.791Zm32.056.013h-.012c0-1.717.083-3.44-.03-5.149a2.042,2.042,0,0,0-2.206-1.779,2.2,2.2,0,0,0-2.058,2.155q-.027,4.747,0,9.495a2.2,2.2,0,0,0,2.032,2.186,2.107,2.107,0,0,0,2.247-1.831C1366.567,486.194,1366.485,484.5,1366.485,482.8Zm18.648,1.915c-.077-.233-.122-.4-.188-.562-1.248-3.033-2.529-6.054-3.724-9.108-.262-.669-.675-.583-1.175-.625-.525-.045-.743.16-.923.639-1.129,3-2.3,5.982-3.446,8.973-.084.218-.137.448-.21.69,1.523.116,1.518.115,1.981-1.128.228-.613.313-1.471.761-1.758.49-.315,1.322-.112,2.005-.114,2.078-.006,2.078,0,2.745,1.73C1383.507,484.875,1383.507,484.875,1385.133,484.719Zm13.468-6.909c-2.133-1.431-4.551-.479-5.013,1.94a8.421,8.421,0,0,0-.073,1.952c.112,2.463,2.682,4.339,5.127,2.523l.111.507h1.22V474.49H1398.6Zm23.851-3.331v3.307c-1.511-.753-2.257-.815-3.21-.45-2.395.916-2.555,5.256-.847,6.733a3.77,3.77,0,0,0,1.579.818,2.446,2.446,0,0,0,2.444-.719c.2.69.4.746,1.38.481V474.479Zm-9.235,6.5c0-.082-.016-.258-.025-.435a3.509,3.509,0,0,0-6.984-.4,6.925,6.925,0,0,0-.029,1.514,3.463,3.463,0,0,0,4.8,3.074C1412.507,484.169,1413.189,483.053,1413.217,480.983Zm-25.819,3.761c0-1.471-.013-2.883.009-4.294a3.267,3.267,0,0,1,.2-1.108,1.7,1.7,0,0,1,1.882-.964,1.255,1.255,0,0,1,1.193,1.329c.05,1.01.053,2.022.067,3.034.009.671,0,1.342,0,1.988h1.36c0-1.885.058-3.729-.022-5.567a1.994,1.994,0,0,0-1.72-1.958,3.063,3.063,0,0,0-2.85.634.971.971,0,0,1-.2.11l-.13-.616H1386v7.413Zm15.869-.009c0-1.413-.017-2.772,0-4.13.027-1.737.632-2.225,2.309-1.857l.45-1.2a1.947,1.947,0,0,0-2.857.413l-.117-.634h-1.162v7.407Zm12.617,0v-7.407h-1.292v7.407Zm-39.872-13.928c1.318-.181,2.806.508,3.667-.955a2.8,2.8,0,0,0-.067-3.1c-.911-1.341-2.332-.686-3.6-.838Zm12.857-3.544c-.3.017-.588-.024-.617.044-.286.675-.529,1.368-.848,2.227-.182-.7-.3-1.259-.482-1.793-.066-.192-.324-.478-.448-.456a.822.822,0,0,0-.534.454c-.206.557-.33,1.143-.487,1.718a7.678,7.678,0,0,1-.5-1.356c-.14-.423-.108-1.095-.965-.734.325,1.052.634,2.088.977,3.112a.522.522,0,0,0,.413.285.662.662,0,0,0,.482-.32c.2-.589.339-1.2.543-1.965l.669,2.411c.3-.151.7-.22.771-.41C1388.215,469.469,1388.508,468.428,1388.869,467.266Zm15.062.068c-.823-.268-1.275-.226-1.732.182a2.19,2.19,0,0,0,.052,3.006,1.773,1.773,0,0,0,.969.362,9.514,9.514,0,0,0,1.51-.181v-4.8C1403.553,465.962,1404.3,466.885,1403.931,467.334Zm-3.6,1.152c-.523.108-1.043.192-1.55.324a1.017,1.017,0,0,0-.841,1.1.926.926,0,0,0,1,.937,20.173,20.173,0,0,0,2.1-.171c0-.815.029-1.622-.008-2.426s-.446-1.117-1.4-1.11c-.972.007-1.438.369-1.512,1.344a3.953,3.953,0,0,0,.762-.417C1399.444,467.552,1400.042,467.686,1400.327,468.487Zm8.728.518a1.657,1.657,0,0,0,1.681,1.9,1.689,1.689,0,0,0,1.672-1.849,1.734,1.734,0,0,0-1.709-1.9A1.647,1.647,0,0,0,1409.055,469Zm-28.556-.077c-.012,1.223.618,1.96,1.688,1.974a1.708,1.708,0,0,0,1.676-1.854,1.733,1.733,0,0,0-1.712-1.9A1.655,1.655,0,0,0,1380.5,468.928Zm13.726.087c.027,1.188.651,1.882,1.695,1.887a1.71,1.71,0,0,0,1.666-1.865,1.733,1.733,0,0,0-1.724-1.89A1.659,1.659,0,0,0,1394.225,469.015Zm-4.96,1.717c.587.172.742-.053.72-.554a6.06,6.06,0,0,1,.058-1.658,1.112,1.112,0,0,1,.751-.643c.161-.034.565.382.613.641a8.643,8.643,0,0,1,.052,1.736c-.011.486.177.633.682.455a20.589,20.589,0,0,0-.035-2.558,1.232,1.232,0,0,0-.746-.867,11.151,11.151,0,0,0-2.1-.041Zm19.017.02v-2.745c.283-.272,1.424-.394.136-.814a.344.344,0,0,1-.1-.314,2.051,2.051,0,0,1,.4-.348l.531-.432-.2-.339a4.525,4.525,0,0,0-1.31.477c-.344.265-.076.978-.659,1.2-.014.005.034.308.085.32.54.115.36.536.369.853.019.7.006,1.4.006,2.139Zm-15.337.05.71-.08c0-1.482-.01-2.9,0-4.311.006-.56-.291-.536-.715-.421Zm20.083-3.531v3.443c.485.177.656.028.655-.455a8.43,8.43,0,0,1,.119-1.722c.049-.239.369-.44.6-.617a4.3,4.3,0,0,1,.646-.349l-.1-.3Zm1.561,8.727h1.292v-1.5h-1.292Z" transform="translate(-1327.5 -458.627)" fill="#fff"/>
  <path id="Path_325" data-name="Path 325" d="M1368.714,484.005a.943.943,0,0,1-.931.9.968.968,0,0,1-1.027-.982.943.943,0,0,1,.922-1.011A1.023,1.023,0,0,1,1368.714,484.005Z" transform="translate(-1349.592 -472.288)" fill="#fff"/>
  <path id="Path_326" data-name="Path 326" d="M1390.788,483.921a1.008,1.008,0,0,1-.974.989,1.024,1.024,0,0,1-1.034-1,1,1,0,0,1,.975-.989A1.022,1.022,0,0,1,1390.788,483.921Z" transform="translate(-1361.986 -472.295)" fill="#fff"/>
  <path id="Path_327" data-name="Path 327" d="M1447.57,502.919h-3.181l1.563-4.366Z" transform="translate(-1393.284 -481.097)" fill="#fff"/>
  <path id="Path_328" data-name="Path 328" d="M1485.468,506.331a9.858,9.858,0,0,1-.452,1.7,1.665,1.665,0,0,1-3,.169,3.636,3.636,0,0,1-.045-3.76,1.632,1.632,0,0,1,2.911.027A9.225,9.225,0,0,1,1485.468,506.331Z" transform="translate(-1414.153 -483.913)" fill="#fff"/>
  <path id="Path_329" data-name="Path 329" d="M1539.932,506.317a10.134,10.134,0,0,1-.278,1.474,1.7,1.7,0,0,1-1.547,1.261,1.754,1.754,0,0,1-1.749-1.1,4.09,4.09,0,0,1,.012-3.313,1.694,1.694,0,0,1,3.118-.02A11.431,11.431,0,0,1,1539.932,506.317Z" transform="translate(-1444.849 -483.936)" fill="#fff"/>
  <path id="Path_330" data-name="Path 330" d="M1514.941,506.28a13.176,13.176,0,0,1-.273,1.346,1.911,1.911,0,0,1-1.85,1.4,1.85,1.85,0,0,1-1.906-1.315,3.942,3.942,0,0,1,.006-2.806,1.994,1.994,0,0,1,1.844-1.338,2.015,2.015,0,0,1,1.883,1.395A12.188,12.188,0,0,1,1514.941,506.28Z" transform="translate(-1430.579 -483.92)" fill="#fff"/>
  <path id="Path_331" data-name="Path 331" d="M1440.206,480.426v-3.475c.761.041,1.546-.277,2.133.446a2.6,2.6,0,0,1,.09,2.391C1441.9,480.6,1441.063,480.384,1440.206,480.426Z" transform="translate(-1390.93 -468.92)" fill="#fff"/>
  <path id="Path_332" data-name="Path 332" d="M1500.43,480.919c-.027.505-.1,1.044-.81,1.091-.5.032-.882-.511-.89-1.194-.007-.653.4-1.241.857-1.244C1500.1,479.568,1500.439,480.09,1500.43,480.919Z" transform="translate(-1423.867 -470.415)" fill="#fff"/>
  <path id="Path_333" data-name="Path 333" d="M1491.933,482.712c-.052.789-.436,1.232-1.005,1.128-.2-.038-.372-.271-.557-.414.132-.157.234-.394.4-.455A8.342,8.342,0,0,1,1491.933,482.712Z" transform="translate(-1419.161 -472.182)" fill="#fff"/>
  <path id="Path_334" data-name="Path 334" d="M1515.756,480.786c.006-.759.385-1.245.945-1.213a1.113,1.113,0,0,1,.9,1.218c0,.738-.372,1.234-.938,1.233C1516.078,482.024,1515.751,481.575,1515.756,480.786Z" transform="translate(-1433.448 -470.414)" fill="#fff"/>
  <path id="Path_335" data-name="Path 335" d="M1450.417,480.763c.014-.694.39-1.193.907-1.2s.977.575.974,1.243c0,.7-.428,1.233-.975,1.222S1450.4,481.509,1450.417,480.763Z" transform="translate(-1396.676 -470.406)" fill="#fff"/>
  <path id="Path_336" data-name="Path 336" d="M1481.8,480.8c0-.721.413-1.253.953-1.232a1.148,1.148,0,0,1,.929,1.208,1.1,1.1,0,0,1-.942,1.251C1482.165,482.033,1481.795,481.55,1481.8,480.8Z" transform="translate(-1414.337 -470.411)" fill="#fff"/>
</svg>
