<svg id="Group_796" data-name="Group 796" xmlns="http://www.w3.org/2000/svg" width="104.275" height="36.756" viewBox="0 0 104.275 36.756">
  <path id="Path_300" data-name="Path 300" d="M1156.26,495.272c-15.624,0-31.249-.028-46.873.028a5.093,5.093,0,0,1-5.2-5.223c.035-3.541.024-7.084.026-10.626q.005-7.856,0-15.711a4.913,4.913,0,0,1,5.188-5.2h93.812a4.891,4.891,0,0,1,5.23,5.212c0,8.8-.028,17.6.017,26.4a5.017,5.017,0,0,1-5.133,5.126Q1179.8,495.241,1156.26,495.272Zm0-.987h47.129a3.849,3.849,0,0,0,4.07-4.094q0-13.2,0-26.4a3.9,3.9,0,0,0-4.252-4.26h-93.8a3.912,3.912,0,0,0-4.209,4.178c0,8.8.037,17.6-.026,26.4a4.184,4.184,0,0,0,4.223,4.205C1125.017,494.258,1140.64,494.285,1156.263,494.285Z" transform="translate(-1104.187 -458.544)" fill="#ff779d"/>
  <path id="Path_301" data-name="Path 301" d="M1141.9,484.258a5.979,5.979,0,0,1-.487.4c-3.249,2.109-3.233,7.576.656,9.688.435.237.522.453.348.912a15.968,15.968,0,0,1-3.155,5.128,3.43,3.43,0,0,1-4.013,1.006c-.2-.075-.415-.133-.611-.223a5.374,5.374,0,0,0-4.544-.04c-2.339,1.01-3.575.728-5.348-1.517a15.473,15.473,0,0,1-3.613-11.308,7,7,0,0,1,3.89-6,4.848,4.848,0,0,1,4.344-.275,6.263,6.263,0,0,0,5.287-.018A6.069,6.069,0,0,1,1141.9,484.258Z" transform="translate(-1112.932 -470.48)" fill="#ff779d"/>
  <path id="Path_302" data-name="Path 302" d="M1201.179,506.423v2.586c0,1.066-.126,1.156-1.276.868v-9.539h1.031l.128.747a10.3,10.3,0,0,1,1.956-.888,2.715,2.715,0,0,1,3.107,1.8,4.618,4.618,0,0,1,0,3.376A3.01,3.01,0,0,1,1201.179,506.423Zm-.075-2.642.04.008c.013.26.012.522.042.779a1.916,1.916,0,0,0,3.67.566,3.463,3.463,0,0,0,.061-2.666,1.88,1.88,0,0,0-1.778-1.291,1.92,1.92,0,0,0-1.822,1.329A8.234,8.234,0,0,0,1201.1,503.781Z" transform="translate(-1153.766 -480.086)" fill="#ff779d"/>
  <path id="Path_303" data-name="Path 303" d="M1180.579,504.353c.463-1.365.907-2.674,1.351-3.982.572-1.683,1.165-3.36,1.7-5.054.157-.493.471-.493.846-.463s.806-.165,1,.43c.965,2.9,1.969,5.789,2.955,8.682a2.606,2.606,0,0,1,.071.37c-1.155.242-1.234.2-1.583-.8-.236-.675-.3-1.614-.775-1.944-.508-.349-1.415-.13-2.148-.137-1.171-.011-1.17,0-1.527,1.121-.1.31-.2.619-.3.928C1181.833,504.524,1181.832,504.524,1180.579,504.353Zm5.345-3.956-1.407-4.2-1.359,4.2Z" transform="translate(-1143.756 -477.346)" fill="#ff779d"/>
  <path id="Path_304" data-name="Path 304" d="M1217.877,501.314a2.9,2.9,0,0,1,3.275-1.015,2.97,2.97,0,0,1,1.987,2.59,4.362,4.362,0,0,1-.39,2.786,2.905,2.905,0,0,1-4.517.943c-.061-.05-.13-.088-.313-.211v3.534h-1.193v-9.6h.974Zm.026,2.457.049,0a6.918,6.918,0,0,0,0,.715,1.85,1.85,0,0,0,1.6,1.783,1.869,1.869,0,0,0,2.142-1.3,3.334,3.334,0,0,0-.08-2.661,1.86,1.86,0,0,0-1.948-1.121,1.993,1.993,0,0,0-1.653,1.547C1217.947,503.076,1217.939,503.427,1217.9,503.771Z" transform="translate(-1162.479 -480.087)" fill="#ff779d"/>
  <path id="Path_305" data-name="Path 305" d="M1244.147,495.114l-.3.9a4.155,4.155,0,0,0-.819-.209,5.973,5.973,0,0,0-1.9.025,1.282,1.282,0,0,0-.355,2.311,13.181,13.181,0,0,0,1.9.97,2.884,2.884,0,0,1,1.8,1.914,2.6,2.6,0,0,1-1.544,3.091,4.848,4.848,0,0,1-3.8-.08c-.725-.295-.119-.748-.119-1.18a8.092,8.092,0,0,0,1.58.451,4.2,4.2,0,0,0,1.772-.171,1.467,1.467,0,0,0,.359-2.511,7.537,7.537,0,0,0-1.3-.724,12.467,12.467,0,0,1-1.437-.748,2.414,2.414,0,0,1,.138-4.089A4.261,4.261,0,0,1,1244.147,495.114Z" transform="translate(-1173.902 -477.211)" fill="#ff779d"/>
  <path id="Path_306" data-name="Path 306" d="M1265.961,500.161a3.291,3.291,0,0,1,3.332,3.622,3.384,3.384,0,0,1-3.45,3.551,3.307,3.307,0,0,1-3.339-3.562A3.386,3.386,0,0,1,1265.961,500.161Zm2.064,3.613a10.548,10.548,0,0,0-.3-1.3,1.893,1.893,0,0,0-1.8-1.35,1.944,1.944,0,0,0-1.844,1.3,3.355,3.355,0,0,0-.009,2.6,1.975,1.975,0,0,0,1.831,1.335,1.9,1.9,0,0,0,1.784-1.295A10.545,10.545,0,0,0,1268.025,503.774Z" transform="translate(-1186.191 -480.101)" fill="#ff779d"/>
  <path id="Path_307" data-name="Path 307" d="M1293.982,503.973H1289.3c-.2,1.89,1.1,2.533,4.122,2.1.35.836.328.9-.524,1.081a7.356,7.356,0,0,1-1.352.166,3.106,3.106,0,0,1-3.307-2.005,4.164,4.164,0,0,1,1.009-4.486,3.184,3.184,0,0,1,3.427-.321A3.3,3.3,0,0,1,1293.982,503.973Zm-1.177-.972c-.026-1.164-.665-1.911-1.621-1.934a1.9,1.9,0,0,0-1.862,1.934Z" transform="translate(-1199.389 -480.096)" fill="#ff779d"/>
  <path id="Path_308" data-name="Path 308" d="M1148.6,469.085a5.8,5.8,0,0,1-4.423,5.488c-.929.144-1.072,0-.957-.936a6.011,6.011,0,0,1,4.7-5.116C1148.5,468.4,1148.686,468.6,1148.6,469.085Z" transform="translate(-1124.388 -463.694)" fill="#ff779d"/>
  <path id="Path_309" data-name="Path 309" d="M1253.5,499.425c-1.1-.158-1.1-.158-.987-1.01.133-.02.277-.046.422-.06s.3-.018.481-.027a6.2,6.2,0,0,1,.261-1.609c.089-.205.653-.206,1.069-.318v1.92h1.728v.992h-1.651c0,1.483-.034,2.885.016,4.284.021.583.485.78,1.034.722.352-.038.564.018.6.453s-.179.514-.513.576a1.859,1.859,0,0,1-2.444-1.985c-.039-1.084-.01-2.169-.01-3.254Z" transform="translate(-1180.989 -478.153)" fill="#ff779d"/>
  <path id="Path_310" data-name="Path 310" d="M1178.35,478.737c0-.824.013-1.649-.006-2.473-.009-.366.083-.588.489-.582a16.852,16.852,0,0,1,2.2.046,2.484,2.484,0,0,1,2.226,2.28c.171,1.648-.415,2.978-1.707,3.368a11.837,11.837,0,0,1-2.814.285c-.12.006-.358-.329-.367-.516C1178.326,480.344,1178.35,479.54,1178.35,478.737Zm.816-.113c0,.65-.02,1.3.014,1.949a.607.607,0,0,0,.294.464,2.456,2.456,0,0,0,2.706-1.207,2.67,2.67,0,0,0-.153-2.728,2.51,2.51,0,0,0-2.4-.838c-.378.014-.471.206-.464.541C1179.174,477.41,1179.165,478.017,1179.165,478.624Z" transform="translate(-1142.598 -467.414)" fill="#ff779d"/>
  <path id="Path_311" data-name="Path 311" d="M1279.831,500.355h.951l.15,1.1c.573-.813,1.17-1.4,2.207-1.221v1.1c-1.548.206-2.065.791-2.079,2.357-.01,1.143,0,2.286,0,3.47h-1.227Z" transform="translate(-1195.166 -480.121)" fill="#ff779d"/>
  <path id="Path_312" data-name="Path 312" d="M1198.9,479.272c.518-.2.778-.036.9.531.181.86.439,1.7.715,2.748.344-1.078.615-1.984.932-2.874.071-.2.305-.337.465-.5.176.173.439.314.513.523a26.553,26.553,0,0,0,.959,2.6c.232-.836.488-1.666.688-2.51.121-.51.353-.711.947-.485q-.408,1.283-.816,2.568a8.362,8.362,0,0,1-.4,1.168.784.784,0,0,1-.526.4c-.147.014-.4-.212-.466-.384-.309-.855-.57-1.727-.895-2.741-.322.946-.576,1.774-.894,2.577a1.045,1.045,0,0,1-.557.557c-.418.139-.466-.26-.551-.542q-.525-1.744-1.039-3.491C1198.867,479.371,1198.892,479.325,1198.9,479.272Z" transform="translate(-1153.233 -469.229)" fill="#ff779d"/>
  <path id="Path_313" data-name="Path 313" d="M1247.212,477.381v-2.248h.781v6.323l-.914-.432a1.815,1.815,0,0,1-2.489-.06,2.7,2.7,0,0,1-.2-3.152C1244.987,476.936,1245.8,476.8,1247.212,477.381Zm.037,1.861-.032,0a3.866,3.866,0,0,0,0-.455,1.157,1.157,0,0,0-2.255-.347,1.978,1.978,0,0,0,.066,1.757,1.061,1.061,0,0,0,1.117.618,1.073,1.073,0,0,0,.993-.8A4.955,4.955,0,0,0,1247.249,479.241Z" transform="translate(-1176.595 -467.137)" fill="#ff779d"/>
  <path id="Path_314" data-name="Path 314" d="M1291.174,481.3c0-.625,0-1.25,0-1.876a6.1,6.1,0,0,0-.043-.779c-.093-.676-.441-1.012-.989-.98a1.068,1.068,0,0,0-1.022,1.069c-.032.738-.011,1.477-.017,2.216a3.617,3.617,0,0,1-.043.372l-.713.039v-6.239h.734v2.471c.271-.184.424-.3.591-.4a1.424,1.424,0,0,1,2.177.868,17.024,17.024,0,0,1,.1,3.047c0,.121-.38.236-.584.354Z" transform="translate(-1199.576 -467.131)" fill="#ff779d"/>
  <path id="Path_315" data-name="Path 315" d="M1225.861,481.243a2.067,2.067,0,0,1,2.17-2.235,2.009,2.009,0,0,1,2.046,2.2,2.077,2.077,0,0,1-2.139,2.272A2.018,2.018,0,0,1,1225.861,481.243Zm3.4.011c.006-.953-.549-1.638-1.315-1.625-.744.012-1.261.66-1.277,1.6a1.439,1.439,0,0,0,1.309,1.633A1.464,1.464,0,0,0,1229.261,481.255Z" transform="translate(-1167.211 -469.144)" fill="#ff779d"/>
  <path id="Path_316" data-name="Path 316" d="M1258.289,481.258a2.047,2.047,0,0,1,2.148-2.249,2.024,2.024,0,0,1,2.067,2.253,2.086,2.086,0,0,1-2.2,2.223A2,2,0,0,1,1258.289,481.258Zm3.385-.039c-.015-.938-.541-1.6-1.276-1.6-.762,0-1.31.685-1.306,1.642a1.437,1.437,0,0,0,1.275,1.6A1.457,1.457,0,0,0,1261.674,481.219Z" transform="translate(-1184.008 -469.144)" fill="#ff779d"/>
  <path id="Path_317" data-name="Path 317" d="M1193.83,481.228a2.068,2.068,0,0,1-2.135,2.257,2.023,2.023,0,0,1-2.079-2.227,2.063,2.063,0,0,1,2.138-2.25A2,2,0,0,1,1193.83,481.228Zm-.819.036c0-.974-.538-1.656-1.3-1.648a1.661,1.661,0,0,0,.012,3.244A1.446,1.446,0,0,0,1193.011,481.264Z" transform="translate(-1148.437 -469.144)" fill="#ff779d"/>
  <path id="Path_318" data-name="Path 318" d="M1301.06,481.389H1298.2c.013,1.254.657,1.574,2.535,1.308.207.32.195.551-.24.644a2.466,2.466,0,0,1-2.6-.52,2.385,2.385,0,0,1-.323-2.631,1.932,1.932,0,0,1,2.409-1.135A1.9,1.9,0,0,1,1301.06,481.389Zm-2.8-.707h2.07c-.11-.807-.48-1.169-1.073-1.12A1.067,1.067,0,0,0,1298.263,480.682Z" transform="translate(-1204.226 -469.119)" fill="#ff779d"/>
  <path id="Path_319" data-name="Path 319" d="M1238.028,480.485c-.081-.96-.44-1.087-2-.743-.268-.276-.212-.459.141-.619a1.745,1.745,0,0,1,2.7,1.622c.022.819,0,1.64,0,2.613l-.932-.321a3.471,3.471,0,0,1-.595.308,1.333,1.333,0,1,1-.934-2.493A11.876,11.876,0,0,1,1238.028,480.485Zm-.007.569a4.737,4.737,0,0,0-1.348.429,1.007,1.007,0,0,0-.236.928c.071.2.556.375.833.345C1237.919,482.686,1238.144,482.174,1238.021,481.054Z" transform="translate(-1172.199 -469.075)" fill="#ff779d"/>
  <path id="Path_320" data-name="Path 320" d="M1216.564,483.349h-.792c0-.63,0-1.229,0-1.829a8.105,8.105,0,0,0-.018-.846c-.07-.651-.438-1.025-.97-1.019a1.1,1.1,0,0,0-1.067,1.1c-.025.841-.006,1.684-.006,2.561h-.776v-4.287l.922.4c-.007.005.112-.084.237-.164a1.526,1.526,0,0,1,2.456,1.154C1216.626,481.368,1216.564,482.327,1216.564,483.349Z" transform="translate(-1160.515 -469.125)" fill="#ff779d"/>
  <path id="Path_321" data-name="Path 321" d="M1269.622,479.41a3.406,3.406,0,0,1,.674-.363,1.492,1.492,0,0,1,2,1.284,7.617,7.617,0,0,1,.038,1.04c.005.626,0,1.252,0,1.928h-.8c0-.6,0-1.179,0-1.759,0-.26,0-.522-.017-.781-.061-.718-.4-1.1-.951-1.1a1.11,1.11,0,0,0-1.1,1.136c-.034.563-.013,1.128-.015,1.692,0,.257,0,.515,0,.819h-.757v-4.253Z" transform="translate(-1189.395 -469.12)" fill="#ff779d"/>
  <path id="Path_322" data-name="Path 322" d="M1282.191,478.677l-.5-.433.648-.557c.072-.26-.222-1.022.746-.886l.072.983c.327.366,1.15-.233,1.084.666-.075.04-.111.075-.15.078-.969.075-.969.075-.969,1.072,0,.368-.011.738,0,1.105.034.813.142.919.977.986.158.354.135.589-.345.639-.821.085-1.316-.25-1.373-1.079-.059-.86-.013-1.728-.013-2.592Z" transform="translate(-1196.131 -467.992)" fill="#ff779d"/>
  <path id="Path_323" data-name="Path 323" d="M1222.676,475.093h.756v1.438c0,1.39-.017,2.78.009,4.17.011.56-.169.773-.765.578Z" transform="translate(-1165.561 -467.116)" fill="#ff779d"/>
</svg>
